<?xml version="1.0" standalone="no"?>
<!DOCTYPE svg PUBLIC "-//W3C//DTD SVG 20010904//EN"
 "http://www.w3.org/TR/2001/REC-SVG-20010904/DTD/svg10.dtd">
<svg version="1.0" xmlns="http://www.w3.org/2000/svg"
 width="300.000000pt" height="300.000000pt" viewBox="0 0 300.000000 300.000000"
 preserveAspectRatio="xMidYMid meet">
<metadata>
Created by potrace 1.10, written by Peter Selinger 2001-2011
</metadata>
<g transform="translate(0.000000,300.000000) scale(0.100000,-0.100000)"
fill="#fff" stroke="none">
<path d="M1675 2675 c-22 -8 -41 -15 -42 -15 -2 0 -3 -6 -3 -14 0 -8 -15 -18
-32 -22 -18 -4 -27 -9 -21 -11 9 -3 8 -11 -4 -30 l-17 -26 34 18 c20 10 59 18
97 19 49 1 60 3 48 12 -13 10 -10 13 17 20 l33 8 -39 4 c-28 2 -42 -1 -48 -12
-5 -9 -21 -16 -36 -16 -15 0 -22 4 -16 8 6 4 13 15 17 25 3 9 13 17 20 17 8 0
20 7 27 15 15 18 15 18 -35 0z"/>
<path d="M1555 2658 c-30 -35 -46 -68 -39 -79 3 -6 -2 -19 -12 -30 -14 -15
-15 -20 -4 -17 18 4 41 45 38 67 -2 10 3 15 12 13 8 -2 12 0 7 4 -4 4 0 15 9
25 9 10 14 23 12 29 -2 6 -12 1 -23 -12z"/>
<path d="M1475 2650 c-3 -11 -3 -24 0 -30 3 -6 -1 -13 -9 -16 -9 -3 -14 -10
-11 -14 3 -5 0 -12 -6 -15 -7 -5 -9 1 -7 16 2 19 -2 25 -19 27 -26 4 -31 -13
-8 -22 8 -3 15 -10 15 -16 0 -14 -27 -13 -37 3 -34 52 -254 66 -302 18 -21
-21 -21 -21 -1 -21 30 0 24 -20 -9 -26 -15 -3 -48 -24 -72 -46 -24 -22 -62
-53 -83 -69 -21 -16 -33 -29 -25 -29 7 0 -6 -19 -29 -43 -23 -23 -42 -46 -42
-51 0 -4 -11 -22 -23 -39 -49 -66 -75 -131 -73 -178 2 -24 0 -51 -4 -59 -12
-26 -21 -72 -13 -67 4 3 9 -27 10 -65 1 -39 5 -74 10 -77 4 -3 9 -23 10 -44 2
-21 9 -50 17 -65 18 -34 56 -120 56 -127 0 -3 -15 -6 -32 -6 l-33 -2 30 -4
c16 -3 33 -9 36 -15 4 -6 25 -10 48 -10 45 1 48 -2 26 -24 -13 -13 -13 -18 1
-40 9 -13 20 -39 23 -56 4 -17 12 -33 18 -35 8 -3 10 15 7 64 -5 74 -21 116
-40 109 -7 -3 -10 2 -7 15 7 24 -4 24 -30 2 -19 -17 -20 -17 -14 5 5 20 3 22
-11 10 -17 -14 -17 -14 4 36 3 9 -2 17 -14 20 -18 6 -22 18 -22 64 0 12 -5 22
-11 22 -6 0 -9 9 -6 20 3 11 1 20 -5 20 -5 0 -7 4 -3 9 3 5 1 12 -5 16 -6 4
-8 10 -5 15 3 4 -2 24 -10 43 -8 19 -13 36 -11 38 2 2 6 17 10 32 4 19 3 26
-4 22 -5 -3 -10 -1 -10 4 0 6 3 11 8 11 4 0 6 21 6 47 -1 27 5 61 12 77 8 16
12 32 9 34 -3 3 -5 0 -5 -7 0 -7 -4 -9 -10 -6 -10 6 25 83 43 96 5 3 8 8 7 10
-3 10 13 38 20 34 4 -2 13 8 21 23 8 15 22 36 32 46 9 11 17 26 17 33 0 7 4
13 8 13 5 0 25 16 45 35 21 20 37 33 37 30 0 -3 15 10 32 30 18 19 39 35 46
35 7 0 15 7 18 15 4 8 16 15 28 16 11 0 15 3 9 6 -7 2 -13 12 -13 20 0 11 8
14 34 11 21 -2 34 0 33 7 -1 5 12 9 28 8 17 -1 46 -4 67 -5 20 -1 34 -6 32
-10 -3 -4 2 -5 11 -2 8 4 26 -1 40 -10 25 -16 90 -16 105 1 9 10 30 72 30 89
0 21 -18 17 -25 -6z"/>
<path d="M1766 2579 c-10 -6 -33 -9 -52 -6 -26 4 -32 3 -27 -9 3 -8 12 -13 19
-10 8 3 14 1 14 -5 0 -6 4 -8 9 -5 26 17 132 -50 191 -121 24 -29 47 -50 51
-47 11 6 30 -31 21 -41 -4 -3 -2 -6 3 -5 24 5 27 -1 9 -16 -10 -8 -14 -13 -7
-9 7 3 17 -3 22 -14 14 -26 14 -44 -1 -35 -6 4 -8 3 -5 -4 4 -5 16 -8 27 -5
12 3 20 0 20 -6 0 -7 -5 -9 -11 -5 -12 7 21 -48 34 -57 5 -4 -1 -14 -14 -23
-13 -9 -18 -16 -12 -16 7 0 15 5 18 10 4 6 11 8 16 4 7 -4 6 -10 0 -18 -6 -7
-8 -23 -5 -37 3 -13 6 -28 7 -34 2 -5 6 -15 10 -22 4 -6 3 -14 -2 -17 -5 -3
-9 -22 -9 -42 0 -27 3 -33 10 -23 6 10 7 7 3 -11 -10 -42 -27 -70 -38 -63 -7
4 -8 -1 -3 -13 4 -10 4 -15 0 -11 -4 4 -14 1 -22 -6 -13 -10 -14 -9 -3 11 12
23 6 47 -10 37 -15 -10 -10 -62 10 -97 14 -23 24 -72 34 -168 l13 -135 18 58
c16 54 17 60 2 76 -17 19 -17 87 -1 123 4 10 5 24 2 32 -3 8 -3 17 0 20 4 3 8
18 9 33 2 14 7 29 12 32 5 3 9 24 8 46 -1 22 2 45 7 52 6 8 2 30 -9 58 -13 35
-14 49 -6 57 17 17 15 93 -3 108 -8 7 -15 18 -15 24 0 22 -97 153 -152 206
-31 29 -54 58 -52 64 2 6 -14 20 -36 30 -42 20 -49 30 -27 40 6 3 -5 5 -25 3
-37 -3 -51 6 -25 16 6 3 8 6 2 6 -5 0 -18 -4 -29 -10z"/>
<path d="M1137 2031 c2 -8 -7 -25 -19 -39 l-23 -25 23 12 c20 11 22 9 22 -14
0 -15 5 -35 10 -46 7 -13 7 -19 0 -19 -5 0 -8 -10 -6 -22 3 -13 5 -27 6 -33 1
-5 6 7 10 29 4 21 3 57 -2 80 -5 22 -7 55 -4 71 4 19 3 25 -3 16 -5 -7 -11 -9
-13 -5 -3 5 -3 3 -1 -5z"/>
<path d="M996 1990 c1 -19 -2 -29 -10 -28 -6 2 -11 -1 -11 -7 0 -5 3 -9 8 -7
15 5 6 -23 -15 -47 -13 -14 -15 -19 -5 -12 12 10 17 10 17 2 0 -7 4 -10 10 -6
5 3 7 12 4 19 -3 7 2 16 11 19 11 5 14 16 12 42 -5 46 -24 68 -21 25z"/>
<path d="M1194 1978 c-10 -33 -11 -98 -1 -98 5 0 7 -7 4 -15 -4 -8 -1 -17 6
-21 7 -4 9 -4 5 0 -4 5 4 26 18 47 27 44 35 89 9 55 -8 -11 -15 -28 -15 -37 0
-10 -5 -21 -12 -25 -8 -5 -10 9 -5 54 5 65 3 77 -9 40z"/>
<path d="M2059 1964 c0 -16 -2 -36 -4 -45 -1 -9 3 -16 11 -16 9 0 12 12 10 39
-4 47 -16 63 -17 22z"/>
<path d="M1489 1876 c-11 -25 -26 -46 -32 -46 -6 0 -7 -3 -4 -7 4 -3 2 -12 -5
-20 -8 -10 -8 -12 3 -8 15 6 73 115 65 122 -3 3 -15 -16 -27 -41z"/>
<path d="M1266 1894 c-3 -9 -6 -25 -6 -37 1 -17 2 -19 9 -7 16 27 22 60 13 60
-6 0 -13 -7 -16 -16z"/>
<path d="M959 1764 c-5 -14 -9 -35 -9 -47 0 -18 2 -19 10 -7 5 8 10 25 10 37
0 16 5 20 20 16 11 -3 20 -1 20 5 0 5 -9 12 -21 15 -15 4 -22 -1 -30 -19z"/>
<path d="M890 1743 c0 -12 -6 -24 -12 -26 -10 -4 -9 -8 2 -16 12 -8 16 -6 18
9 2 11 8 17 14 14 6 -4 14 0 19 7 13 21 11 33 -4 20 -10 -8 -17 -7 -25 1 -9 9
-12 7 -12 -9z"/>
<path d="M1907 1734 c5 -14 -24 -12 -50 2 -6 4 -5 -1 4 -10 9 -9 27 -18 40
-18 13 -1 29 -6 36 -11 7 -5 18 -5 24 -1 7 4 9 3 6 -3 -8 -12 -56 -12 -74 0
-7 5 -13 6 -13 2 0 -3 -13 1 -29 9 -16 9 -31 12 -35 9 -3 -4 -6 -2 -6 3 0 13
-38 15 -45 3 -4 -5 1 -12 9 -15 9 -3 13 -11 9 -17 -4 -7 0 -8 11 -4 13 5 17 3
13 -5 -6 -16 104 -19 116 -3 4 6 10 5 16 -4 7 -10 13 -11 30 -2 12 7 26 9 31
6 18 -11 32 5 19 21 -26 31 -122 64 -112 38z"/>
<path d="M1235 1706 c-16 -13 -33 -22 -37 -19 -5 2 -8 0 -8 -6 0 -6 -6 -8 -14
-5 -18 7 -31 -15 -17 -29 16 -16 53 -17 47 0 -8 19 21 16 34 -4 11 -17 11 -17
6 1 -6 17 -5 17 11 5 11 -9 14 -10 9 -1 -4 6 -3 12 3 12 5 0 15 -8 20 -17 6
-10 11 -13 11 -7 0 7 17 11 45 10 25 -1 45 2 45 6 0 5 6 8 14 8 8 0 16 5 18
12 3 7 11 9 24 4 10 -5 40 -9 67 -11 36 -2 47 1 47 13 0 10 -7 13 -21 9 -16
-4 -19 -2 -14 11 3 9 3 13 -1 9 -4 -4 -13 -2 -21 4 -10 9 -13 7 -13 -10 0 -11
-4 -21 -9 -21 -11 0 -32 25 -27 31 3 2 -27 5 -65 6 -37 1 -71 -2 -74 -8 -4 -5
-11 -7 -16 -3 -12 7 -7 -19 5 -27 4 -4 -5 -6 -20 -6 -16 0 -23 2 -16 4 24 9
12 23 -15 18 -26 -5 -26 -5 -5 4 12 6 22 15 22 21 0 14 -1 13 -35 -14z"/>
<path d="M1724 1710 c0 -26 22 -42 35 -26 9 10 6 17 -12 29 -21 13 -23 13 -23
-3z"/>
<path d="M1657 1575 c-8 -46 33 -105 73 -105 6 0 2 14 -10 30 -12 17 -25 28
-29 26 -4 -3 -8 0 -9 7 -9 68 -17 81 -25 42z"/>
<path d="M1813 1581 c-33 -9 -65 -40 -57 -53 6 -9 9 -9 12 0 2 7 21 12 42 12
24 0 40 5 44 15 3 8 15 15 27 15 16 0 20 -5 16 -20 -4 -16 -2 -18 13 -10 11 6
28 5 49 -3 27 -10 33 -9 41 3 5 8 10 18 10 22 0 12 -163 28 -197 19z"/>
<path d="M735 1551 c-3 -11 1 -41 9 -68 9 -26 23 -75 32 -108 11 -40 27 -70
50 -92 35 -34 44 -49 22 -38 -7 4 0 -5 16 -18 28 -24 66 -37 108 -37 17 0 18
2 4 29 -9 16 -23 31 -31 35 -25 9 -32 7 -12 -5 9 -5 17 -14 17 -19 0 -16 -46
-11 -60 5 -11 13 -10 14 6 9 10 -3 4 3 -13 15 -19 12 -33 29 -33 41 0 11 -7
20 -15 20 -29 0 -55 60 -55 126 0 33 5 65 12 72 9 9 7 16 -7 32 -23 25 -42 26
-50 1z"/>
<path d="M1315 1564 c-41 -6 -138 -35 -149 -44 -14 -14 4 -33 19 -20 7 6 30
13 51 15 20 3 44 10 51 17 10 8 17 8 25 0 17 -17 53 -15 68 3 7 8 19 15 26 15
8 0 14 -7 14 -15 0 -9 9 -15 22 -15 l22 0 -20 21 c-22 21 -74 30 -129 23z"/>
<path d="M2037 1453 c4 -73 1 -116 -11 -155 -8 -29 -18 -71 -21 -93 -8 -64
-11 -74 -18 -81 -4 -4 -7 -16 -7 -27 0 -18 -28 -76 -41 -87 -4 -3 -17 -24 -29
-48 -27 -52 -36 -49 -17 6 13 38 13 40 -4 29 -10 -6 -15 -15 -13 -19 3 -4 0
-8 -5 -8 -6 0 -11 -10 -11 -22 0 -25 13 -50 24 -49 11 0 65 64 72 84 3 9 9 17
13 17 21 0 64 126 73 214 19 182 21 270 5 306 -13 33 -14 29 -10 -67z"/>
<path d="M1774 1495 c24 -18 156 -21 156 -4 0 8 -19 10 -57 7 -32 -3 -71 -1
-88 3 -28 8 -29 7 -11 -6z"/>
<path d="M1403 1490 c-12 -5 -47 -10 -78 -11 -31 -1 -58 -6 -60 -10 -17 -27
134 -17 168 12 24 20 9 25 -30 9z"/>
<path d="M838 1463 c-18 -5 -35 -46 -29 -73 4 -22 32 -50 49 -50 13 0 13 3 -1
18 -23 26 -21 49 6 63 29 16 28 14 21 33 -6 16 -14 18 -46 9z"/>
<path d="M1765 1410 c-3 -5 -3 -25 0 -43 5 -25 2 -38 -10 -51 -9 -9 -14 -22
-12 -29 4 -9 6 -9 6 1 2 20 17 13 29 -13 17 -37 15 -53 -8 -65 -15 -8 -18 -8
-14 3 3 8 -3 17 -12 21 -21 8 -63 -28 -45 -38 6 -4 11 -3 11 3 0 10 14 9 43
-4 9 -4 28 -4 41 -1 20 5 24 11 21 36 -2 16 -9 39 -16 51 -10 19 -16 54 -21
127 -2 15 -5 15 -13 2z"/>
<path d="M890 1326 c0 -16 24 -38 33 -30 8 9 -11 44 -23 44 -6 0 -10 -6 -10
-14z"/>
<path d="M1414 1273 c-58 -64 -71 -77 -101 -102 -33 -29 -11 -22 46 14 23 14
41 32 41 39 0 8 3 16 8 18 10 4 54 68 46 68 -3 0 -21 -17 -40 -37z"/>
<path d="M1464 1221 c25 -27 78 -49 84 -33 2 7 20 12 39 12 20 0 33 -3 29 -7
-3 -4 6 -12 21 -18 22 -9 31 -9 40 1 19 19 16 26 -8 19 -15 -5 -19 -4 -15 4 5
7 -3 11 -23 11 -16 0 -33 5 -37 11 -4 7 -25 9 -59 4 -34 -4 -55 -2 -60 4 -3 6
-11 11 -17 11 -6 0 -3 -9 6 -19z"/>
<path d="M1374 1126 c-20 -23 -32 -51 -34 -81 -3 -47 -1 -49 19 -23 19 24 20
24 225 26 200 2 205 2 225 -20 l21 -22 0 22 c0 11 5 24 10 27 6 3 10 9 10 13
0 12 -311 12 -378 1 -47 -9 -66 -9 -75 0 -8 8 -8 11 0 11 6 0 14 7 17 16 4 12
1 14 -14 9 -22 -7 -26 5 -8 23 7 7 8 12 3 12 -6 -1 -15 -6 -21 -14z"/>
<path d="M1844 903 c-3 -13 -10 -23 -15 -23 -5 0 -9 -5 -9 -11 0 -25 -42 -99
-69 -122 -33 -28 -101 -37 -236 -33 -73 2 -87 6 -160 45 -76 41 -78 41 -45 12
48 -43 180 -103 180 -83 0 4 40 7 88 8 135 2 158 9 209 62 55 57 88 125 74
150 -10 15 -11 15 -17 -5z"/>
<path d="M995 823 c-15 -27 -37 -83 -49 -127 -21 -72 -26 -80 -62 -100 -21
-11 -40 -24 -42 -28 -2 -5 -12 -8 -23 -8 -36 0 -247 -94 -409 -183 -258 -141
-409 -236 -410 -257 0 -11 12 -15 46 -15 25 0 41 1 35 3 -29 10 10 65 74 104
40 25 101 49 143 57 4 1 1 5 -7 10 -10 7 -5 11 18 16 17 4 29 10 26 15 -6 9
33 25 52 22 7 -2 13 1 13 6 0 19 33 22 47 5 8 -10 12 -13 8 -6 -6 14 31 26 77
26 15 0 25 4 22 9 -3 4 -22 8 -42 8 l-37 1 35 19 c20 11 55 19 83 20 44 0 62
12 35 23 -20 8 12 27 45 27 15 0 27 5 27 12 0 6 3 9 6 5 4 -3 14 3 23 13 22
26 93 56 85 36 -9 -23 35 -31 51 -10 11 16 15 16 29 5 9 -8 15 -16 12 -18 -2
-2 9 -18 25 -36 16 -17 32 -28 36 -24 3 4 -5 20 -19 35 -44 47 -52 70 -33 98
9 14 20 22 24 19 15 -9 30 20 37 75 5 30 7 59 6 64 -2 5 4 6 13 2 9 -3 19 -6
21 -6 2 0 4 -7 4 -16 0 -8 14 -29 30 -46 17 -16 35 -38 40 -49 6 -10 16 -19
24 -19 16 0 53 -43 49 -56 -2 -5 6 -10 17 -11 11 -1 25 -7 32 -13 7 -6 42 -29
78 -53 36 -23 67 -44 70 -47 3 -3 22 -14 43 -25 20 -11 37 -22 37 -25 0 -4 18
-16 40 -29 22 -12 40 -18 40 -13 0 10 -133 111 -172 131 -16 7 -28 17 -28 22
0 5 -5 9 -11 9 -13 0 -183 138 -219 177 -40 44 -55 82 -54 140 0 29 -3 53 -7
53 -4 0 -19 -21 -34 -47z"/>
<path d="M1840 743 c0 -50 -18 -112 -41 -145 -21 -29 -25 -43 -9 -33 6 4 29 8
51 9 38 3 41 1 72 -50 21 -34 42 -57 61 -64 16 -5 35 -19 43 -30 8 -11 18 -20
24 -20 14 0 11 27 -6 44 -17 17 -20 30 -5 21 20 -12 206 -77 259 -90 30 -8 57
-19 61 -25 4 -7 9 -11 11 -10 2 1 16 -1 30 -5 14 -3 32 -7 40 -9 8 -1 24 -7
36 -14 12 -7 30 -13 40 -15 17 -3 78 -28 115 -48 10 -5 26 -9 36 -9 10 0 36
-17 56 -37 34 -35 37 -42 33 -80 -2 -24 -1 -40 4 -37 5 3 9 0 9 -5 0 -6 -8
-11 -17 -12 -12 0 -13 -2 -5 -6 7 -3 22 3 32 12 23 20 28 13 33 -45 2 -28 7
-36 26 -38 26 -4 25 3 -14 98 -46 109 -69 140 -131 175 -68 37 -300 117 -494
169 -74 20 -169 53 -211 72 l-77 36 -4 77 c-5 72 -31 151 -50 151 -4 0 -8 -17
-8 -37z"/>
<path d="M1552 568 c-16 -16 -15 -28 3 -28 8 0 15 2 15 4 0 2 3 11 6 20 7 19
-7 21 -24 4z"/>
<path d="M1122 528 c-22 -28 -52 -99 -46 -109 3 -6 21 14 40 43 34 53 42 78
25 78 -5 0 -13 -6 -19 -12z"/>
<path d="M2075 393 c11 -8 30 -12 43 -10 12 2 25 0 28 -4 3 -5 10 -9 15 -9 6
0 3 7 -6 16 -8 9 -34 17 -57 19 -39 3 -41 2 -23 -12z"/>
<path d="M195 210 c-3 -5 1 -10 11 -10 14 0 14 -3 4 -15 -7 -9 -22 -13 -34
-10 -12 3 -15 2 -9 -1 10 -4 10 -11 2 -25 -8 -16 -17 -19 -40 -14 -19 4 -29 3
-29 -5 0 -6 4 -8 10 -5 5 3 10 0 10 -7 0 -7 11 -13 25 -13 15 0 23 5 21 12 -3
6 7 20 22 32 15 11 36 27 47 35 12 9 15 15 7 16 -7 0 -10 5 -7 10 3 6 -3 10
-14 10 -11 0 -23 -4 -26 -10z"/>
<path d="M50 67 c0 -17 20 -37 37 -37 11 0 9 6 -4 25 -20 27 -33 32 -33 12z"/>
</g>
</svg>
